<?xml version="1.0" encoding="utf-8"?>
<!-- Generator: Adobe Illustrator 24.2.0, SVG Export Plug-In . SVG Version: 6.00 Build 0)  -->
<svg version="1.1" id="图层_1" xmlns="http://www.w3.org/2000/svg" xmlns:xlink="http://www.w3.org/1999/xlink" x="0px" y="0px"
	 viewBox="0 0 380 190" style="enable-background:new 0 0 380 190;" xml:space="preserve">
<style type="text/css">
	.st0{fill-rule:evenodd;clip-rule:evenodd;fill:#E8423F;}
	.st1{fill-rule:evenodd;clip-rule:evenodd;fill:#FFFFFF;}
	.st2{fill-rule:evenodd;clip-rule:evenodd;fill:#9680BA;}
	.st3{fill:#5AA536;}
	.st4{fill:#5B8435;}
	.st5{fill:#4B9037;}
	.st6{fill:#F5A939;}
	.st7{fill:#E39232;}
	.st8{fill-rule:evenodd;clip-rule:evenodd;fill:#FFFFFE;}
</style>
<g>
	<path class="st0" d="M79.5,65.6c0,0-3.9,2.9-1.9,7.8l25.3,64.3c0,0,2.3,2.4,6.8,1.9c4.5-0.4,33.1-7.8,33.1-7.8s3.3-1.5,3.9-3.9
		c0.6-2.4-4.9-74.1-4.9-74.1s-0.1-4.3-2.9-3.9C136.1,50.5,79.5,65.6,79.5,65.6"/>
	<polygon class="st1" points="83.4,75.4 86.4,90 105.3,83.9 115.9,128.9 133.3,124.5 122.7,79.3 140.9,74.4 138,59.8 	"/>
	<path class="st2" d="M199.4,72.4c0,0-9.9-2-11.7,0c-1.8,2-3.7,5.8-3.9,9.7s-6.4,37.6-1.9,41.9c2.5,2.4,33,14.6,40,15.6
		c7,1,8.8-1,8.8-1L255,85.1c0,0,1.5-5-1-4.9C251.5,80.4,199.4,72.4,199.4,72.4"/>
	<path class="st3" d="M153.3,65.6c-1.8,0-4.8,0.3-6.6,1.8c-1,0.8-2.5,3.4-3.4,5.7c0.9,12.5,2.1,28.6,2.8,40.2
		c9.9,2.5,25.5,5.7,34.5,7.5c-1.5-9.8,3.1-35.2,3.2-38.5c0.2-3.9,2.1-7.7,3.9-9.7c0.5-0.5,1.5-0.8,2.7-0.9c-0.2-1.4-0.5-2.5-0.9-3.4
		c-0.9-1.7-4.9-2.5-5.6-2.5c0,0,0,0,0,0c-0.2,0-3.5,0-7.8,0c-8.6,0-21.2,0-21.2,0S154.3,65.6,153.3,65.6"/>
	<path class="st4" d="M143.3,73.1c-0.2,0.5-0.3,0.9-0.4,1.3c-2.5,8.6-7.8,28.3-7.8,28.3s-1.6,5.3,1.9,7.8c0.9,0.6,4.3,1.6,9.1,2.8
		C145.4,101.7,144.3,85.6,143.3,73.1"/>
	<path class="st5" d="M190.4,71.6c-1.2,0.1-2.2,0.3-2.7,0.9c-1.8,2-3.7,5.8-3.9,9.7c-0.2,3.4-4.8,28.8-3.2,38.5
		c4.3,0.9,7.1,1.4,7.1,1.4s1.3,0.6,2.8,0.6c0.7,0,1.5-0.2,2.1-0.6c1.9-1.4-1.3-42.8-1.9-48.3C190.6,73.1,190.5,72.3,190.4,71.6"/>
	<path class="st6" d="M242.6,59.3c-1.8,0-3.7,0.3-4.2,1.4c-0.3,0.7-0.3,7.9-0.2,17.5c8.1,1.2,14.6,2,15.7,2c0,0,0.1,0,0.1,0
		c0,0,0.1,0,0.1,0c2.3,0,0.9,4.9,0.9,4.9l-15.9,35c0.2,6.5,0.3,10.8,0.3,10.8s1.7,4.9,3.9,5.8c2.2,0.9,36.1,2.9,36.1,2.9
		s0.7,0.3,1.6,0.3c0.8,0,1.8-0.3,2.3-1.2c1.1-2,19.5-69.2,19.5-69.2s1.4-5.7-2.9-5.8c-4.3-0.1-53.1-3.6-53.6-3.9
		C246,59.6,244.3,59.3,242.6,59.3"/>
	<path class="st7" d="M238.2,78.2c0.2,13.1,0.6,30.7,0.9,41.9l15.9-35c0,0,1.4-4.9-0.9-4.9c0,0-0.1,0-0.1,0c0,0-0.1,0-0.1,0
		C252.8,80.2,246.3,79.4,238.2,78.2"/>
	<path class="st1" d="M275.5,85.1c0,0-11.7-2.6-16.6-1c-4.4,1.5-11.3,6.1-13.6,14.6c-2.5,9.2-0.7,20.5,9.7,22.4
		c10.4,1.9,16.7-2.7,16.7-2.7l-1.7,5.4h13.7l9.3-48.5l-14.6-1l-1.3,11.2L275.5,85.1z M260.5,99c2.7-4.5,9.4-6.5,12.2-4.5
		c2.6,1.8,1.8,6.8-0.6,11c-2.4,4.3-6.4,5.7-9.6,5.1C259.1,110,257.8,103.6,260.5,99z"/>
	<path class="st8" d="M196.5,83.2l3.9,45.8l12.7-1l-1.9-18.5c0,0,4.7,2.9,9.7,2.9c5,0,11.4-3,12.7-7.8c1.3-4.8,1.9-11.1,1-14.6
		c-1-3.6-5.5-11.4-11.7-11.7c-6.2-0.3-9.4-0.5-17.5,1.9C197.2,82.7,196.5,83.2,196.5,83.2z M209.8,95.5c-0.3-4.5,1-6.5,3.9-7.3
		c4.1-1.1,7.5,2.2,8.3,6.5c0.8,4.3-1.6,8.4-4.5,8.9C214.5,104.2,210.1,99.8,209.8,95.5z"/>
	<path class="st1" d="M168.2,86.1c0,0-7.3,0.8-13.6,1.9c-6.4,1.1-11.5,4.2-12.7,8.8c-1.1,4.6-0.1,11.2,4.9,12.7c5,1.5,14.6,1,14.6,1
		l2.6-5.9c0,0-7.6,0.2-7.5-2.8c0.1-1.7,0.3-3.6,5.8-4.9c5.5-1.3,6.6-0.8,6.6-0.8l-3,15.6l14,1.8l4.9-27.3c0,0,1.7-7.5-3.9-10.9
		c-5.5-3.3-2.7-2.1-10.8-2.7c-8.4-0.6-17.5,0-17.5,0l-2.9,8.8c0,0,16.2-1.1,17.5,0c1.3,1.1,2.5,1.4,1.9,2.9S168.2,86.1,168.2,86.1z"
		/>
</g>
</svg>
